<svg width="24" height="24" viewBox="0 0 24 24" fill="none" xmlns="http://www.w3.org/2000/svg">
<path d="M23.7666 9.6498H22.8V9.6H12V14.4H18.7818C17.7924 17.1942 15.1338 19.2 12 19.2C8.0238 19.2 4.8 15.9762 4.8 12C4.8 8.0238 8.0238 4.8 12 4.8C13.8354 4.8 15.5052 5.4924 16.7766 6.6234L20.1708 3.2292C18.0276 1.2318 15.1608 0 12 0C5.373 0 0 5.373 0 12C0 18.627 5.373 24 12 24C18.627 24 24 18.627 24 12C24 11.1954 23.9172 10.41 23.7666 9.6498Z" fill="#FFC107"/>
<path d="M1.3833 6.4146L5.3259 9.306C6.3927 6.6648 8.9763 4.8 11.9997 4.8C13.8351 4.8 15.5049 5.4924 16.7763 6.6234L20.1705 3.2292C18.0273 1.2318 15.1605 0 11.9997 0C7.3905 0 3.3933 2.6022 1.3833 6.4146Z" fill="#FF3D00"/>
<path d="M11.9994 24C15.099 24 17.9154 22.8138 20.0448 20.8848L16.3308 17.742C15.0855 18.689 13.5639 19.2012 11.9994 19.2C8.8782 19.2 6.228 17.2098 5.22961 14.4324L1.31641 17.4474C3.30241 21.3336 7.33561 24 11.9994 24Z" fill="#4CAF50"/>
<path d="M23.7666 9.65002H22.8V9.60022H12V14.4002H18.7818C18.3085 15.7301 17.456 16.8921 16.3296 17.7428L16.3314 17.7416L20.0454 20.8844C19.7826 21.1232 24 18.0002 24 12.0002C24 11.1956 23.9172 10.4102 23.7666 9.65002Z" fill="#1976D2"/>
</svg>
